/* XPM */
static char *ecdcf665903649f2802a42b902b3502cRLaeCkeVeQxvz9Ua[] = {
/* columns rows colors chars-per-pixel */
"64 64 161 2 ",
"   c #172836",
".  c #355C7D",
"X  c #6F576B",
"o  c #6F586C",
"O  c #7E6175",
"+  c #7F6175",
"@  c #7E6275",
"#  c #7F6276",
"$  c #974F5F",
"%  c #A0535F",
"&  c #A0545F",
"*  c #8E5369",
"=  c #8E5469",
"-  c #8A576C",
";  c #835A6A",
":  c #845A6A",
">  c #9A5764",
",  c #9C5464",
"<  c #9E5765",
"1  c #975568",
"2  c #975A6B",
"3  c #98586A",
"4  c #9E5B6E",
"5  c #995E6E",
"6  c #825E73",
"7  c #835F73",
"8  c #965A70",
"9  c #A75667",
"0  c #AE5666",
"q  c #AE5766",
"w  c #AF5766",
"e  c #AA5E64",
"r  c #A15C6F",
"t  c #A75C6E",
"y  c #AF5C69",
"u  c #AE5C6D",
"i  c #B35C62",
"p  c #BC5F62",
"a  c #BD5F62",
"s  c #B85F65",
"d  c #BA5C67",
"f  c #BA5D67",
"g  c #BB5D67",
"h  c #B05B68",
"j  c #B55D6C",
"k  c #A05E70",
"l  c #87616E",
"z  c #8A6378",
"x  c #8A6478",
"c  c #976473",
"v  c #986170",
"b  c #986473",
"n  c #986573",
"m  c #9F6676",
"M  c #9B6875",
"N  c #9B6D78",
"B  c #9C6D78",
"V  c #9C6D79",
"C  c #9C6E79",
"Z  c #A56067",
"A  c #AB616D",
"S  c #B66265",
"D  c #BD6062",
"F  c #BC6063",
"G  c #BD6063",
"H  c #BF6767",
"J  c #B3616C",
"K  c #B7606E",
"L  c #B5656E",
"P  c #BC616A",
"I  c #BF656C",
"U  c #A76174",
"Y  c #AB6173",
"T  c #AC6173",
"R  c #A96472",
"E  c #AD6274",
"W  c #A7647B",
"Q  c #A3677E",
"!  c #AE657A",
"~  c #A26D7B",
"^  c #AE697D",
"/  c #B16471",
"(  c #B26673",
")  c #B96673",
"_  c #B56A72",
"`  c #BB6A75",
"'  c #BC6A75",
"]  c #BB6679",
"[  c #B06D7F",
"{  c #B37674",
"}  c #BF707E",
"|  c #C06767",
" . c #C06867",
".. c #C6696D",
"X. c #C7696D",
"o. c #D16569",
"O. c #D36669",
"+. c #D1666A",
"@. c #D66A6E",
"#. c #D46E6E",
"$. c #DB6A6A",
"%. c #DB6B6B",
"&. c #DC6A6A",
"*. c #DD6B6A",
"=. c #DC6B6B",
"-. c #DD6B6B",
";. c #DF6B6A",
":. c #C06B70",
">. c #C56972",
",. c #C26778",
"<. c #C36A7A",
"1. c #C26B7F",
"2. c #C26C7F",
"3. c #C76C7E",
"4. c #CC6B79",
"5. c #CD6B79",
"6. c #C86C7E",
"7. c #D76B70",
"8. c #D86B70",
"9. c #C67771",
"0. c #C37074",
"q. c #C47074",
"w. c #C5707D",
"e. c #C7737F",
"r. c #CE707C",
"t. c #C87D7B",
"y. c #DF7470",
"u. c #DA7374",
"i. c #DB7E79",
"p. c #E07470",
"a. c #E07570",
"s. c #CA8076",
"d. c #D1857F",
"f. c #D2857F",
"g. c #D2867F",
"h. c #DF877E",
"j. c #E0827E",
"k. c #E0877E",
"l. c #E7877C",
"z. c #E8877C",
"x. c #E8887D",
"c. c #3D7E8C",
"v. c #B06A81",
"b. c #B66A80",
"n. c #B76D82",
"m. c #C86E80",
"M. c #C96E80",
"N. c #C57383",
"B. c #C57483",
"V. c #CA7482",
"C. c #CB7483",
"Z. c #CC7784",
"A. c #C87882",
"S. c #D17981",
"D. c #D47D83",
"F. c #CE8180",
"G. c #E58B82",
"H. c #E58B83",
"J. c #EC9182",
"K. c #EC9282",
"L. c #ED9283",
/* pixels */
"=.=.=.=.=.=.=.=.=.@.5.3.3.,.j 0 q g O.%.%.*.=.=.=.%.*.7.4.3.3.,.j 0 q g +.%.%.*.=.=.=.=.=.=.$.7.5.3.3.,.j 0 0 g +.=.=.=.=.=.=.=.",
"=.=.=.=.=.=.=.=.=.@.5.3.3.,.j 0 q g O.%.*.%.=.=.=.*.%.7.4.3.3.,.j 0 q g +.*.=.%.=.=.=.=.=.&.%.7.4.m.3.,.j y 0 j +.=.=.=.=.=.=.=.",
"=.=.=.=.=.=.=.=.=.@.5.6.3.,.j 0 q d o.*.%.=.=.=.=.=.=.@.5.3.6.,.j 0 0 g +.=.=.=.=.=.=.=.=.&.&.%.5.3.3.,.j 0 0 g +.=.=.=.=.=.=.=.",
"=.=.=.=.=.=.=.=.=.@.5.6.6.<.j 0 q d +.%.=.=.=.=.=.=.=.8.5.3.6.,.j 0 0 d +.=.=.=.=.=.=.=.=.&.&.@.5.3.6.,.j 0 0 g +.=.=.=.=.=.=.=.",
"=.=.=.=.=.=.=.=.$.7.5.3.6.,.j 0 q d o.*.=.=.$.$.=.=.=.@.5.3.3.,.j q q d +.=.=.=.=.=.=.=.=.=.$.7.4.3.6.,.j 0 h g o.=.=.=.=.$.=.=.",
"$.$.$.$.$.$.$.=.%.7.4.6.6.,.j 0 0 d o.*.=.$.$.$.%.=.=.@.5.3.3.,.j q q d +.=.=.=.$.$.$.$.$.=.=.7.4.3.m.,.j 0 0 g o.=.=.$.=.;.$.$.",
"$.$.$.$.$.$.$.$.=.@.5.6.6.,.j 0 0 d o.=.$.$.$.$.$.$.=.@.5.6.3.,.j q 0 d +.=.=.=.$.$.$.$.$.$.=.7.4.m.3.,.j 0 0 g o.=.=.$.$.$.$.$.",
"y.y.y.y.y.y.y.y.a.u.r.6.6.<.j h h P #.p.p.y.y.y.y.y.p.u.5.6.V.<.K y y P @.p.p.p.y.y.y.y.y.y.a.8.5.m.m.,.j h h g #.p.p.y.y.y.y.y.",
"l.l.l.l.l.l.l.l.x.j.S.V.V.3._ j L ` i.z.z.z.l.l.l.l.x.h.r.V.V.w.) J J ..h.l.l.z.l.l.l.l.l.l.l.h.S.V.V.w.) J K :.i.z.l.l.l.z.z.z.",
"J.J.J.J.K.K.K.K.J.G.D.Z.Z.V.' L L 0.h.J.J.J.K.K.K.K.K.H.F.Z.Z.B.` L L 0.k.L.J.J.J.J.J.J.J.J.J.G.D.Z.Z.e.` L L 0.k.J.K.K.J.J.J.J.",
"J.J.J.J.J.J.K.K.J.G.D.Z.A.e.' L L ' H.K.L.K.K.K.K.K.L.J.F.D.Z.B.` L L 0.G.L.K.K.J.J.J.J.J.J.K.G.D.Z.Z.e.' L ( 0.k.J.J.K.J.J.J.J.",
"d.d.d.d.d.d.d.F.g.F.A.N.B.} ( A A _ t.F.g.g.g.g.d.d.F.Z.Z.C.B.w._ A A L s.F.F.F.d.d.g.g.d.g.g.g.A.B.B.} ( A A _ t.g.d.g.g.g.g.g.",
"n C C C N N N N V ~ v.v.n.[ r 3 3 5 n N C N C N N N N N ^ n.n.! 4 2 2 5 c C C C M C V C N N V ~ [ n.n.[ 4 2 2 8 N V V N M V V B ",
"O O O O z O O O O z V v.v.W 2 = * - 7 z O O O O z O O z Q v.v.W 5 = = - 6 O O O O O ; O O O O x Q v.^ W 2 * * - O O O O O O x O ",
"O O O z z O O O O z v.v.v.W 8 = * - : O O O O z O O O z Q v.v.W 8 = = - x O O O x O O O O O O x Q v.v.W 2 = = - l O O x O O O O ",
"c c c c b n n c c m ^ b.b.! 4 1 1 5 n c c c c c                               ; O ; ; ; ; : : m ! b.b.! 4 1 1 5 8 c c c c c c c ",
"....X.............>.<.V.1.] u 9 9 y I           . . . . . . . c.c.c.c.c.c.c.c.          e e e e Y U U k u 9 9 h | >.X.X...X.....",
"%.%.;.;.;.;.;.;.*.7.5.6.3.,.j         . . . . . . . . . . . . . . . . . . . c.c.c.c.c.c.        u E T t , $ q g O.;.;.=.=.;.;.;.",
"=.=.=.=.=.=.=.=.*.@.5.3.3.    . . . . . . . . . . . . . . . . . . . . . . . . . . . . c.c.c.c.c.    T t , $ $ d +.;.=.=.*.*.;.;.",
"=.=.=.=.;.=.=.$.%.@.5.    . . . . . . . . . . . . . . . . . . . . . . . . . . . . . . . . . c.c.c.c.    , $ $ & i =.=.=.%.%.$.$.",
"%.%.%.%.;.$.$.$.*.    . . . . . . . . . . . . . . . . . . . . . . . . . . . . . . . . . . . . . . c.c.c.    $ & i D =.=.*.%.*.%.",
"*.%.%.%.;.;.%.%.  . . . . . . . . . .                       . . . . . . . . . . . . . . . . . . . . . c.c.c.  & i D D =.%.*.%.*.",
"%.*.%.%.%.%.    . . . . .                                               . . . . . . . . . . . . . . . . c.c.c.    P D D =.=.=.=.",
"*.%.%.%.%.  . . . . .                                                             . . . . . . . . . . . . c.c.c.c.  D D P =.=.=.",
"%.=.=.=.  . . . .                                                                       . . . . . . . . . . c.c.c.c.  D D D $.%.",
"$.$.$.$.  .                                                                               . . . . . . . . . c.c.c.c.  a D a D %.",
"$.$.$.                                                                                      . . . . . . . . . c.c.c.c.  p a a $.",
"y.y.y.                                                                                          . . . . . . . . c.c.c.  H H H H ",
"x.x.                                                                                                . . . . . . . c.c.c.  9.9.9.",
"J.J.                                                                                                  . . . . . . c.c.c.  t.s.s.",
"J.L.                                                                                                    . . . . . . c.c.  s.s.s.",
"F.g.                                                                                                      . . . . . c.c.  { { g.",
"N N                                                                                                       . . . . . c.c.  l l N ",
"O @ z                                                                                                       . . . . c.  X X X O ",
"O O z                                                                                                       . . . . c.  X X O z ",
"c c n v                                                                                                     . . . .   ; ; c c c ",
" .......                                                                                                      . . .   e e e ....",
"=.=.;.=.=.                                                                                                    . .   F D D *.*.*.",
";.=.=.=.=.=.                                                                                                      F D D D *.*.*.",
"=.=.=.=.=.$.@.$.                                                                                              , i F D D %.%.*.*.",
"=.=.=.=.=.=.=.=.$.                                                                                          $ & i F  .=.=.=.=.=.",
"=.=.=.=.=.=.=.=.=.7.5.                                                                                  , $ $ & i F %.*.=.=.=.=.",
"=.=.=.=.=.=.=.=.%.7.5.3.3.                                                                          Y t , $ $ & i %.%.%.=.=.=.=.",
"=.=.=.=.=.=.=.=.$.7.4.3.6.<.j                                                                   A Y Y t , $ q d +.%.%.*.=.=.=.=.",
"*.%.*.%.=.$.$.$.=.@.5.3.4.,.j 0 0 g i                                                   D D F F L Y Y t j q q d o.=.=.=.=.=.=.=.",
"$.$.$.$.;.$.$.*.=.@.5.6.3.,.j 0 q g i F p D F D                               D D D D D F F F j u R Y <.j q q d o.=.=.$.=.=.$.$.",
"$.$.$.$.$.$.$.$.$.@.5.3.3.<.j 0 q j +.p p F F p D p d F A E T t , , $ & i D D D p p p p p p p s u 6.6.,.j 0 0 d o.=.=.$.$.$.$.$.",
"y.y.y.y.y.y.y.y.y.u.4.V.3.<.K y q I #.y.H H H H H H H H ( E T A , h 0 P S H H H H H H H H H y.u.r.M.6.<.K h y d @.p.p.y.y.y.y.y.",
"x.l.l.l.l.l.l.l.l.h.S.Z.C.3.) K K ..g.l.l.z.l.l.l.l.z.j.Z.V.V.R r > > Z i.l.l.l.l.l.z.l.l.l.l.h.S.V.Z.w.` J J ` h.l.x.z.z.z.z.z.",
"K.K.J.K.J.J.J.J.J.G.D.Z.Z.V.` L L q.h.K.J.J.J.J.J.J.J.G.D.Z.Z.e.` L L q.h.K.K.K.J.J.J.J.K.K.K.G.D.Z.Z.N.` L L 0.h.x.L.J.J.J.J.J.",
"J.J.J.J.J.J.K.K.J.G.S.Z.A.e.` L L q.G.J.J.J.J.J.J.J.J.G.D.Z.V.N.` L L q.k.J.K.K.J.J.J.J.J.J.K.G.D.A.Z.w.` L K >.k.K.J.L.J.J.J.J.",
"d.d.d.d.d.g.g.g.d.t.Z.B.B.} ( A A _ t.F.g.g.g.g.d.d.g.g.A.B.B.m._ A Y L t.d.g.g.d.d.d.d.d.d.g.g.A.B.B.w.( A A _ s.d.F.g.g.g.g.g.",
"n V V V B B V C C C v.v.n.v.r 2 2 5 c V B N N B M C V ~ ^ n.n.^ 4 1 2 5 c C C N n N c C N N N ~ v.n.n.^ k 3 3 5 N N N N N N B B ",
"O z O O O z O O O x ~ v.^ W 2 = * - 7 O O O O O O O O z ~ v.v.W 5 = = - z O O O z z O O O O O x ~ v.v.W 8 = * - @ @ x @ O O x O ",
"O O O O O O O O O z v.v.v.W 2 = * - l O O O x O x O O x v.v.v.W 2 = = - O O x @ @ O O O O O O z W v.v.W 8 = * - O O O x O O O O ",
"n c c c c c n c c m ^ b.b.! 4 1 1 2 c n n n c c c c c c W v.b.! 4 1 1 2 c c c c c c c c c c 5 Q v.v.b.! 4 3 3 3 5 c c c c c c c ",
"..........X.X.>...>.<.M.} ] u 9 0 y H >...........X...,.<.1.2.] u 9 9 h H X.X.................>.<.2.2.] u 9 9 h H ..X.X.X.X.....",
";.;.&.;.=.;.=.=.=.7.5.6.3.,.j 0 0 g +.=.;.;.;.;.*.*.*.%.5.6.6.,.j 0 h g o.=.;.=.;.;.;.;.=.=.;.@.5.6.6.,.j q q g +.$.=.;.=.;.;.=.",
"&.;.;.;.;.;.=.=.=.8.5.3.3.,.j 0 h g O.=.;.=.=.;.*.*.=.@.5.6.6.,.j u 0 g O.=.=.=.=.;.*.=.=.;.;.@.5.6.6.,.j h q g o.=.=.=.;.;.=.=.",
"$.$.=.=.=.=.=.&.=.8.5.6.6.,.j 0 0 g +.=.$.$.=.=.=.*.=.@.5.3.6.,.j 0 0 d o.=.;.=.=.=.=.=.=.=.=.@.5.6.6.,.j 0 q g o.=.=.=.=.=.=.=.",
"$.;.$.$.=.=.=.&.$.7.5.3.6.,.j 0 0 g +.=.=.=.=.=.=.=.;.@.4.3.3.,.j 0 0 g o.=.=.=.=.=.=.=.=.=.*.8.5.3.3.,.j q q g o.=.=.=.=.=.=.=.",
"$.;.$.$.=.=.=.=.%.7.4.3.6.,.j 0 0 g +.=.=.=.=.=.=.=.=.@.4.3.3.,.j 0 0 g o.=.=.=.=.=.=.=.=.=.%.@.5.3.3.,.j q q g o.=.=.=.=.=.=.=.",
"=.=.$.$.=.=.=.=.=.@.5.3.6.,.j 0 0 g +.;.=.=.=.=.=.=.=.@.4.3.6.,.j 0 0 g +.;.=.=.=.=.=.=.=.=.*.@.5.3.6.,.j q 0 g o.=.=.=.=.=.=.=.",
"=.=.%.*.=.=.=.=.=.8.5.6.6.,.j 0 0 d +.=.=.=.=.=.=.=.=.@.5.6.6.<.j 0 h g +.=.=.=.=.=.=.%.*.=.$.@.5.3.6.,.j q 0 g o.;.=.=.=.=.=.=."
};
