/* XPM */
static char *result[] = {
/* columns rows colors chars-per-pixel */
"64 64 4 1 ",
"  c #FCC88D",
". c #FFD7A3",
"X c #FFEFC9",
"o c None",
/* pixels */
"oooooooooooooooooooooooooooooooooooooooooooooooooooooooooooooooo",
"oooooooooooooooooooooooooooooooooooooooooooooooooooooooooooooooo",
"oooooooooooooooooooooooooooooooooooooooooooooooooooooooooooooooo",
"oooooooooooooooooooooooooooooooooooooooooooooooooooooooooooooooo",
"oooooooooooooooooooooooooooooooooooooooooooooooooooooooooooooooo",
"oooooooooooooooooooooooooooooooooooooooooooooooooooooooooooooooo",
"oooooooooooooooooooooooooooooooooooooooooooooooooooooooooooooooo",
"oooooooooooooooooooooooooooooooooooooooooooooooooooooooooooooooo",
"oooooooooooooooooooooooooooooooooooooooooooooooooooooooooooooooo",
"oooooooooooooooooooooooooooooooooooooooooooooooooooooooooooooooo",
"oooooooooooooooooooooooooooooooooooooooooooooooooooooooooooooooo",
"oooooooooooooooooooooooooooooooooooooooooooooooooooooooooooooooo",
"oooooooooooooooooooooooooooooooooooooooooooooooooooooooooooooooo",
"ooooooooooooooooooooooooooooooooooooooooooooXXXXoooooooooooooooo",
"oooooooooooooooooooooooooooooooooooooooooooXXXXXXooooooooooooooo",
"ooooooooooooooooooooooooooooooooooooooooooXXXXXXXXoooooooooooooo",
"ooooooooooooooooooooooooooooooooooooooooooXXXX....oooooooooooooo",
"oooooooooooooooooooooooooooooooooooooooooXXXX.....oooooooooooooo",
"oooooooooooooooooooooooooooooooooooooooooXXX..... oooooooooooooo",
"ooooooooooooooooooooooooooooooooooooooooXXX...... oooooooooooooo",
"oooooooooooooooooooooooooooooooooooooooXXXX.....  oooooooooooooo",
"oooooooooooooooooooooooooooooooooooooooXXX.....   oooooooooooooo",
"oooooooooooooooooooooooooooooooooooooXXXX........   ..oooooooooo",
"ooooooooooooooooooooooooooooooooooooXXX................ooooooooo",
"ooooooooooooooooooooooooooooooooooXXXX.................ooooooooo",
"oooooooooooooooooooooooooooooooXXXXX....................oooooooo",
"oooooooooooooooooooooooooooooXXXXX..................... oooooooo",
"oooooooooooooooooooooooooooXXXX.......................  oooooooo",
"oooooooooooooooooooooooooXXXX......................     oooooooo",
"ooooooooooooooooooooooXXXXX...............             ooooooooo",
"ooooooooooooooooooooXXXX...............               oooooooooo",
"ooooooooooooooooXXXXX...............     ooooooo    oooooooooooo",
"ooooooooooooXXXXXXX...............    oooooooooooooooooooooooooo",
"ooooooooXXXXXXXX................   ooooooooooooooooooooooooooooo",
"oooooooXXXXXX..................  ooooooooooooooooooooooooooooooo",
"ooooooXXXXX..................   oooooooooooooooooooooooooooooooo",
"oooooXXX..................    oooooooooooooooooooooooooooooooooo",
"oooooXXX.................    ooooooooooooooooooooooooooooooooooo",
"ooooooXX...............    ooooooooooooooooooooooooooooooooooooo",
"ooooooXXX.....  ......   ooooooooooooooooooooooooooooooooooooooo",
"oooooooXX..    .......   ooooooooooooooooooooooooooooooooooooooo",
"ooooooooooooo ........  oooooooooooooooooooooooooooooooooooooooo",
"ooooooooooooo .......  ooooooooooooooooooooooooooooooooooooooooo",
"ooooooooooooo .......  ooooooooooooooooooooooooooooooooooooooooo",
"ooooooooooooo  ....   oooooooooooooooooooooooooooooooooooooooooo",
"oooooooooooooo        oooooooooooooooooooooooooooooooooooooooooo",
"oooooooooooooo       ooooooooooooooooooooooooooooooooooooooooooo",
"oooooooooooooooo    oooooooooooooooooooooooooooooooooooooooooooo",
"ooooooooooooooooo  ooooooooooooooooooooooooooooooooooooooooooooo",
"oooooooooooooooooooooooooooooooooooooooooooooooooooooooooooooooo",
"oooooooooooooooooooooooooooooooooooooooooooooooooooooooooooooooo",
"oooooooooooooooooooooooooooooooooooooooooooooooooooooooooooooooo",
"oooooooooooooooooooooooooooooooooooooooooooooooooooooooooooooooo",
"oooooooooooooooooooooooooooooooooooooooooooooooooooooooooooooooo",
"oooooooooooooooooooooooooooooooooooooooooooooooooooooooooooooooo",
"oooooooooooooooooooooooooooooooooooooooooooooooooooooooooooooooo",
"oooooooooooooooooooooooooooooooooooooooooooooooooooooooooooooooo",
"oooooooooooooooooooooooooooooooooooooooooooooooooooooooooooooooo",
"oooooooooooooooooooooooooooooooooooooooooooooooooooooooooooooooo",
"oooooooooooooooooooooooooooooooooooooooooooooooooooooooooooooooo",
"oooooooooooooooooooooooooooooooooooooooooooooooooooooooooooooooo",
"oooooooooooooooooooooooooooooooooooooooooooooooooooooooooooooooo",
"oooooooooooooooooooooooooooooooooooooooooooooooooooooooooooooooo",
"oooooooooooooooooooooooooooooooooooooooooooooooooooooooooooooooo"
};
