/* XPM */
static char *_5050ad9bfc44488ae4cb1f0183fcd00eHsryTetYNv5qpSu[] = {
/* columns rows colors chars-per-pixel */
"64 64 143 2 ",
"   c #172C51",
".  c #1B2D51",
"X  c #1D3152",
"o  c #1E3A53",
"O  c #252E52",
"+  c #362F52",
"@  c #213453",
"#  c #213C53",
"$  c #2A3B54",
"%  c #373053",
"&  c #393053",
"*  c #3E3956",
"=  c #423153",
"-  c #413C56",
";  c #4A3B57",
":  c #4D3C58",
">  c #5F3455",
",  c #673D58",
"<  c #733756",
"1  c #1F4157",
"2  c #234157",
"3  c #244359",
"4  c #26495D",
"5  c #3F4357",
"6  c #264E60",
"7  c #284E61",
"8  c #275466",
"9  c #2B5566",
"0  c #265B6B",
"q  c #2E5C6B",
"w  c #365C6A",
"e  c #2E616D",
"r  c #30636E",
"t  c #3A616D",
"y  c #2E6671",
"u  c #2E6B73",
"i  c #326670",
"p  c #396770",
"a  c #326C73",
"s  c #2D7177",
"d  c #2D7579",
"f  c #2F787A",
"g  c #337177",
"h  c #337679",
"j  c #3C7779",
"k  c #33787A",
"l  c #404357",
"z  c #4D4759",
"x  c #464D5D",
"c  c #4E4859",
"v  c #504758",
"b  c #50495A",
"n  c #70475C",
"m  c #73515E",
"M  c #4D5E6B",
"N  c #545260",
"B  c #565966",
"V  c #565F6B",
"C  c #595F6B",
"Z  c #57606B",
"A  c #59656E",
"S  c #4F6E73",
"D  c #536F74",
"F  c #5B6F74",
"G  c #4F7074",
"H  c #4D7578",
"J  c #517376",
"K  c #5A7476",
"L  c #5D7577",
"P  c #5E7576",
"I  c #517678",
"U  c #7B626B",
"Y  c #797273",
"T  c #7C7173",
"R  c #7D7273",
"E  c #7E7273",
"W  c #7F7273",
"Q  c #8F3A58",
"!  c #903958",
"~  c #9B3C58",
"^  c #AD3D59",
"/  c #B53D59",
"(  c #B93E5A",
")  c #B5445C",
"_  c #BA455C",
"`  c #BD485E",
"'  c #8A5260",
"]  c #AE5E65",
"[  c #B35662",
"{  c #B05C65",
"}  c #8F6369",
"|  c #93646B",
" . c #92696D",
".. c #95696D",
"X. c #926E70",
"o. c #807273",
"O. c #917071",
"+. c #967071",
"@. c #AF6065",
"#. c #B16066",
"$. c #B06267",
"%. c #BB6166",
"&. c #B1676B",
"*. c #B2666A",
"=. c #B2676B",
"-. c #B2696B",
";. c #B36C6E",
":. c #B16E6E",
">. c #B56E6E",
",. c #B66E6E",
"<. c #BD686B",
"1. c #B86E6E",
"2. c #BC6D6D",
"3. c #BD6D6D",
"4. c #BF6D6D",
"5. c #C0495E",
"6. c #C45161",
"7. c #CA5763",
"8. c #D15F66",
"9. c #C1686B",
"0. c #C06C6D",
"q. c #C16D6D",
"w. c #C26D6D",
"e. c #C06E6E",
"r. c #D26066",
"t. c #D86267",
"y. c #D46368",
"u. c #D3696A",
"i. c #D26B6B",
"p. c #D66B6B",
"a. c #D36C6C",
"s. c #DB6A6A",
"d. c #DA6B6B",
"f. c #DB6B6B",
"g. c #DC6A6A",
"h. c #DD6A6A",
"j. c #DD6B6A",
"k. c #DE6B6B",
"l. c #E06A6A",
"z. c #E16A6A",
"x. c #E06B6B",
"c. c #E36A6A",
"v. c #E06C6B",
/* pixels */
"f.f.f.f.f.f.f.f.f.f.f.f.f.f.f.f.f.f.f.f.f.f.f.f.f.f.f.f.d.d.d.s.d.f.f.g.v.g.g.s.f.f.f.f.f.f.f.f.f.f.f.f.f.f.f.f.f.f.f.f.f.f.f.f.",
"f.f.f.f.f.f.f.f.f.f.f.f.f.f.f.f.f.f.f.f.u.f.j.s.f.f.f.f.s.s.d.f.f.a.4.:.;.e.a.f.f.f.f.f.f.f.f.g.f.f.f.f.f.f.f.f.f.f.f.f.f.f.f.f.",
"f.f.f.f.f.f.f.f.f.f.f.f.f.f.f.f.f.f.f.g.f.j.j.j.s.f.f.f.s.s.s.g.v.e.W K K W 0.g.v.f.s.s.f.f.f.f.f.f.f.f.f.f.f.f.f.f.f.f.f.f.f.f.",
"f.f.f.f.f.f.f.f.f.f.f.f.f.f.f.f.f.f.f.j.f.u.2.2.u.s.s.f.s.g.g.a.e...J s s J ..w.a.g.f.f.f.f.f.f.f.f.f.f.f.f.f.f.f.f.f.f.f.f.f.f.",
"f.f.f.f.f.f.f.f.f.f.f.f.f.f.f.f.f.f.f.j.f.4.Y Y 2.j.g.g.f.g.v.0.W G i e e p G W w.j.j.f.p.j.s.s.f.f.f.f.f.f.f.f.f.f.f.f.f.f.f.f.",
"f.f.f.f.f.f.f.f.f.f.f.f.f.f.f.f.g.v.g.a.e.O.H H  .0.a.v.v.a.0. .G u e q 0 y s H O.2.i.j.v.p.p.s.f.f.f.f.f.f.f.f.f.f.f.f.f.f.f.f.",
"f.f.f.f.f.f.f.f.f.f.g.f.f.f.f.f.f.f.v.e.W H j j J W 2.v.c.e.o.J p e q q a g h j J W q.c.j.p.s.s.f.s.s.f.f.f.f.f.f.f.f.f.f.f.f.f.",
"f.f.f.f.f.f.f.f.f.f.g.g.f.f.f.f.f.a.e. .J d g g s G  .>.4.+.H s e q q r a g h h f J O.q.a.v.j.s.g.s.a.f.f.f.f.f.f.f.f.f.f.f.f.f.",
"f.f.f.f.f.f.f.f.f.f.f.f.g.g.f.g.x.e.W J j g r e e p J L L J j g e q q q r r g k k j J W 2.f.c.j.f.f.f.f.f.f.f.f.f.f.f.f.f.f.f.f.",
"f.f.f.f.f.f.f.g.g.u.4.:.;.e.p.p.e.X.S s s g r r e i u g s g g i e 0 e e q e a g k k d L 1.a.0.q.u.g.g.f.g.g.g.f.g.f.f.f.f.f.f.f.",
"f.f.f.f.f.f.f.g.g.4.T K L o.e.w.W G i e e r g g g a e e r q w e q e a a e q e y g h k K 1.0.Y Y e.g.g.g.g.x.f.f.g.d.f.f.f.f.f.f.",
"f.f.f.f.f.f.f.u.0...I d s J X...G u e q q q a g g g y r q q 0 q q e a a e q q w a g g J .. .G G ..e.u.i.e.;.:.2.u.g.f.f.f.f.f.f.",
"f.f.f.f.g.g.g.4.R H j s y p D I p e q q q q q e e r a a r q q q q q e e q q q q e e e t M M r t G o.e.w.E K K R 0.g.g.f.a.f.f.f.",
"f.f.f.f.g.g.x.>.K k g a r q y u r r q q q q q q q e a a e q q q q q q q q q 0 q q q q q e e e e d J +...J k f H ..e.p.g.g.f.f.f.",
"f.f.f.f.f.g.x.>.K d y q q q r y a a e q q q q q q q r r q q q q q q q q q q q q q q q e u g g g h j L J j h h j I W 4.v.f.f.f.f.",
"f.f.f.f.f.u.4.X.J a q q q q q r a i r 0 q q q q q q q q q q e r e r r r e e q q q q q q a g g g g h h h h h g g d J X.4.u.g.g.f.",
"f.f.f.f.f.3.o.S t e q q q q 9 q e e q q q q q q q q q q q r a g g g g g g a e q 9 q q q e r r u e a g h h g a e g j J o.4.f.g.f.",
"f.f.f.f.g.>.K u e 0 q q 0 q q q q q q q q q q q r r r q q q a a g g g g g a r r w q 0 q q q q q e r a g g a r w a d d K ;.f.f.f.",
"f.f.f.f.v.>.L s e q q q q q q q q q q q q q q e a g g a r q r r r r r e r r a a e q q q q q q q a a r e r q q q q u d K -.j.j.f.",
"f.f.f.u.e. .I y e q r r r r q q q q q 9 q q r r a g g a e q q q q q q q q r a a e q q q q q q e a a e q q q q 9 q e g L ;.j.j.f.",
"f.g.f.4.T G p e q q a g g a r q 9 q q q q e a a r e r e e q q q q q q q q q e e q q q q q q q q r r q q 0 q q q 0 e g L >.g.g.g.",
"g.f.f.;.L s e q q e a g g a r r r r r e q e a a e q q q q q q q q q q q q q q q q q q q q q q q q q q q q q q q q e g L >.v.g.f.",
"f.g.v.;.L s e 0 q 0 w r r r a g g g g a e q r e q q q q q q q q w q q q q q q q q q q q q q q q q q q q q q q q q e a L >.g.g.g.",
"g.x.g.>.L s e q q q q q q r a a g g g a e q q q q q q q q q q q q q q q q q q q q q q q q q q q q q e e q q q q q e a J +.w.u.g.",
"f.g.x.>.L g e 0 q q q q q q e r r r r e q q q q q q q q q w q q q w q q q w q q q q q q q q q q q e a a w q q q q 0 e t G W 2.f.",
"f.f.f.;.K u e q q q q q q q q q q q q q q q q q q q q q q q q q q q q q q q q q q q q q e q q q q r a g e e r r w q 0 e u K ;.j.",
"f.f.g.-.A e 0 q q q q q q q q q q q q q q q q q q q q q q e q q q q q q q q q q q q q q q q w q q q e r g g g a e q q 0 e A -.z.",
"g.g.v.$.B 8 q q q q q q q q q q q q q q q q q w q q q e q q q q q q q q q q q q q w q q q q q q q q q r r g g a e q q q 0 Z *.z.",
"f.v.x.$.b 4 0 w q q 0 w q q q q q q q q q q q q q w q q q q q q q q q q e q q q q q q q w q q q q q q q q r r r q q q 0 0 C *.z.",
"g.a.4.} x 3 4 0 q q q q w 0 q q q q q q q q q e q q q q q q q q q e q q q q w q q q q r q q q q q q 0 q q q q q q q q q 0 C =.z.",
"g.e.W S w 7 3 4 9 q w q q 0 q q q q q q q q q q q q q q q q e q q q q q q q q e q q q q q q q q q q q q q q 0 q 0 q q q q Z =.z.",
"v.>.L s e 0 4 4 9 9 9 9 q q r r q q q q q q w q q q e q w q q q q w q e q q q q q q q q q q q q q r r r q q q q q w q q 0 Z -.z.",
"x.;.L s y q 9 8 8 9 3 7 9 e a a q q q q q q q q q q w q q q q q q q q q q q e q q q q q q q q e a g g a r q q q q q q 0 0 V =.g.",
"x.=.F y q q e q q 9 7 3 9 y a a i e i e e q q q q q e q q q q q q q q q q q q e q q q q q q e r i a a r q q q q q q q w M U 4.g.",
"x.$.N 6 8 q q q q q 9 9 q q i i g g g a e q q q q q q q q q q q q q q q q q q q q q q q q e a a 9 4 4 4 0 q q q q q q M | 9.u.f.",
"v.{ c 1 9 q w q q q w q q q q q i i a i q q q q q e q q q q q q q e q q q q q q q q q q q y i q 3 # 2 4 9 q w q q q q M | 9.u.f.",
"v.@.v 3 8 q q q w q q q q q q 8 7 4 4 7 8 w q q q q q q q q w q q q q q q q q q q q w q q q 7 3 2 2 4 9 q q q q q q q w M U <.g.",
"v.] c 1 7 8 9 9 9 9 q q q q q q 3 3 o 3 7 9 8 9 9 8 q q q q 9 9 9 9 q q q q q q 9 9 9 9 9 7 4 2 2 4 q q q q q q q q w 0 0 C =.x.",
"v.@.c o 3 3 3 3 # 7 8 q q q q q 9 7 3 # 3 3 3 3 3 3 9 q q 9 4 2 $ 7 9 e q q q 9 4 2 3 2 2 3 7 9 9 9 q q q q q q q q q 0 0 V =.f.",
"g.@.b o o # 2 3 3 7 9 q q w q q q 9 4 3 3 3 3 3 3 7 8 w q 9 4 # # 6 9 q q q q 9 4 3 3 3 3 4 q q q q q q q q q q q q 9 9 9 B =.x.",
"v.$.c o 1 2 4 9 9 9 w q q q q q q q 8 9 9 9 9 9 9 9 w q q q 9 9 9 9 q q q q q q 9 9 9 4 9 9 q q q q q q q q q w q 8 4 4 o N @.s.",
"v.{ c o o 4 9 9 9 9 q q 9 9 9 9 q q q w q q 9 9 9 9 q q e q q q q q q q q q q q q q q q q q 9 9 q q 9 9 9 9 q e q 4 2 o o c $.v.",
"v.@.c o o # 3 2 3 7 9 9 4 2 2 4 9 q q q q q 4 2 3 4 9 r a a e q q q q q q q q q q w q q q 9 4 7 9 9 4 2 2 4 9 9 4 2 # # o b $.v.",
"v.@.c o o # # # # 2 7 9 3 3 3 4 9 q q q w 8 4 3 # 4 9 r g h a r e e q q q q q q 8 9 8 9 9 9 3 3 9 4 4 2 2 2 7 7 2 # # o o c @.v.",
"s.@.c o 1 # # # # 2 2 4 7 9 9 9 q q q q q q 9 9 9 9 9 r g h h g g a a q q q w 8 9 2 4 2 2 4 9 7 4 4 4 7 # 2 2 2 # # # 1 o z @.f.",
"s.%.m l $ o o # # # # 2 7 9 9 9 q q q w 9 9 9 8 q q q r a g i y a r q q q q q 9 4 2 2 2 # 3 9 9 4 4 q 9 4 # # # # # o $ 5 m %.f.",
"s.a.%.' * X o # # # # # 3 3 2 7 9 q q 8 4 2 2 4 0 q q q r q 9 4 4 9 q q q q q q 9 9 9 7 2 3 9 q 9 9 q 9 2 # # # 2 o X - ' %.u.s.",
"f.f.s.%.n * $ # # # # # # # # 2 7 8 9 9 4 3 3 4 9 q q q w 9 4 2 @ # 4 9 9 9 q q q q 9 4 2 2 7 9 9 9 9 7 2 # # # # X X : $.v.s.s.",
"f.f.f.s.%.' - X # # # # # # # # 2 3 3 4 9 9 9 9 q q q q q q 9 4 2 # 2 2 2 4 9 q q q 4 2 # # 2 2 4 2 4 2 2 # # # X X . ; ] x.g.g.",
"f.f.f.f.v.{ :   X # # # # # # # # # # 2 4 9 9 q q q q q q q q 9 4 4 2 3 # 4 4 9 9 4 3 # # # # # # # # # o o # @ O .   ; ] g.g.f.",
"f.f.g.s.x.] ;   . O O o # # # # # # # 2 2 3 3 4 9 w q q q q w q 9 9 9 4 3 # 2 3 4 2 # # # # # o # # # o X X X X O .   ; { v.f.g.",
"f.f.s.s.f.%.n * @ .   O @ # # # # # # # # # # 2 7 9 9 9 9 9 9 9 9 9 9 9 3 # # # # # # 2 # # # # # # # @ O . O . . O * n %.f.f.g.",
"f.f.s.s.s.a.%.' * .   O . @ O o # # # # # # # # 3 3 2 3 3 3 2 3 2 3 3 3 # # # # # # # # # # @ O O X X X O . . .   * ' %.u.f.f.j.",
"s.j.r.r.y.y.t.[ , + @   . . . . o o @ o o o # o o o o o o o o o o o o # o o o o o o o # o o . . . . . . . O & = = , [ y.r.r.s.s.",
"s.y.6._ _ ` ` ) ^ < %   . . .   . X X X . X X X . X X . X   X X . X . X X X X X X X X X X X X . . . . . . % < ! ! ~ ) _ ` 6.r.s.",
"s.r.6.` _ _ ) ) / ~ > = = = = = = = = = = = = = = = = = = = = = = = = = = = = = = = = = = = = = = = = = = > ~ ( ( / / ) _ 6.y.s.",
"d.s.y.r.r.7._ / / ^ ~ Q Q ! ! ! ! ! ! ! ! ! ! ! ! ! ! ! ! ! ! ! ! ! ! ! ! ! ! ! Q ! ! ! ! ! ! Q Q Q Q Q Q ~ ^ / / / / ) 7.y.s.s.",
"s.s.s.f.s.r.6.` _ ) / / / / / / / / / / / ( / / / / ( / / / / / / / / / ( / / / / / / / / / / / / / / / / / / ) _ ` ` 6.y.s.d.s.",
"s.d.f.f.s.s.r.r.8.7.` / / / / / / / ) ) / / / / / / / / / / ) ) / / / / / / / / / / / ) / / / / / / / / / / ) _ 7.r.r.y.u.f.f.f.",
"d.d.f.d.s.s.f.g.f.y.6.` ` ` ` ` ` ` ` ` ` ` ` ` ` ` ` ` ` ` ` ` ` ` ` ` ` ` ` ` ` ` ` _ ` ` ` ` ` ` ` ` _ _ ` 6.y.s.s.s.f.f.f.f.",
"f.f.f.f.f.f.f.f.s.s.r.r.8.r.r.r.r.r.r.r.r.r.r.r.8.r.r.r.r.r.r.r.r.r.r.y.r.r.r.r.r.r.r.r.r.r.r.r.8.r.r.r.y.r.r.y.y.f.f.d.f.f.g.f.",
"f.f.f.f.f.f.f.a.s.s.s.f.f.f.f.f.f.f.s.d.d.d.d.s.g.g.f.f.f.f.d.d.d.s.s.f.s.s.s.s.f.f.f.f.f.f.f.f.f.f.f.f.f.f.s.s.s.f.f.s.f.f.f.f.",
"f.f.f.f.f.f.f.f.s.d.f.f.f.f.f.f.f.f.f.f.d.s.f.s.f.f.f.f.f.f.f.d.d.d.f.f.f.f.d.d.f.f.f.f.f.f.f.f.f.f.f.f.f.f.f.f.f.s.s.s.f.f.f.f.",
"f.f.f.f.f.f.f.f.d.d.f.f.f.f.f.f.f.f.f.f.f.d.f.f.f.f.f.f.f.f.f.d.d.d.f.f.f.f.f.f.f.f.f.f.f.f.f.f.f.f.f.f.f.f.f.d.f.d.s.s.f.f.f.f."
};
