/* XPM */
static char *dbc7e4a8e0e64031f767dbe67cf37d5aBqgcdJDdSWPoM1l3[] = {
/* columns rows colors chars-per-pixel */
"64 64 125 2 ",
"   c #1F2E52",
".  c #2E5C6B",
"X  c #7E6175",
"o  c #7F6175",
"O  c #7E6275",
"+  c #7E6276",
"@  c #8E5369",
"#  c #8E5469",
"$  c #8A576C",
"%  c #975568",
"&  c #975A6B",
"*  c #98586A",
"=  c #9E5B6E",
"-  c #995E6E",
";  c #825E73",
":  c #965A70",
">  c #A75667",
",  c #AE5666",
"<  c #AE5766",
"1  c #AF5766",
"2  c #AF5C69",
"3  c #AE5C6D",
"4  c #BA5C67",
"5  c #BA5D67",
"6  c #BB5D67",
"7  c #B05B68",
"8  c #B55D6C",
"9  c #A05E70",
"0  c #8A6378",
"q  c #8A6478",
"w  c #976473",
"e  c #986170",
"r  c #986473",
"t  c #986573",
"y  c #9F6676",
"u  c #9B6875",
"i  c #9B6D78",
"p  c #9C6D78",
"a  c #9C6D79",
"s  c #9C6E79",
"d  c #AB616D",
"f  c #B3616C",
"g  c #B7606E",
"h  c #B5656E",
"j  c #BC616A",
"k  c #BF656C",
"l  c #A7647B",
"z  c #A3677E",
"x  c #AE657A",
"c  c #A26D7B",
"v  c #AF687C",
"b  c #AE697D",
"n  c #B26673",
"m  c #B96673",
"M  c #B56A72",
"N  c #BB6A75",
"B  c #BC6A75",
"V  c #BB6679",
"C  c #B06D7F",
"Z  c #BF707E",
"A  c #C6696D",
"S  c #C7696D",
"D  c #D16569",
"F  c #D16669",
"G  c #D36669",
"H  c #D1666A",
"J  c #D66A6E",
"K  c #D46E6E",
"L  c #DB6A6A",
"P  c #DC6A6A",
"I  c #DD6B6A",
"U  c #DC6B6B",
"Y  c #DF6B6A",
"T  c #C06B70",
"R  c #C56972",
"E  c #C26778",
"W  c #C36A7A",
"Q  c #C26B7F",
"!  c #C76C7E",
"~  c #CC6B79",
"^  c #CD6B79",
"/  c #C86C7E",
"(  c #D76B70",
")  c #D86B70",
"_  c #C37074",
"`  c #C47074",
"'  c #C5707D",
"]  c #C7737F",
"[  c #CE707C",
"{  c #C87D7B",
"}  c #DF7470",
"|  c #DA7374",
" . c #DB7E79",
".. c #E07470",
"X. c #E07570",
"o. c #D1857F",
"O. c #D2867F",
"+. c #DF877E",
"@. c #E0827E",
"#. c #E0877E",
"$. c #E7877C",
"%. c #E8877C",
"&. c #E8887D",
"*. c #B06A81",
"=. c #B66A80",
"-. c #B76D82",
";. c #C86E80",
":. c #C96E80",
">. c #C57383",
",. c #C57483",
"<. c #CA7482",
"1. c #CB7483",
"2. c #CC7784",
"3. c #C87882",
"4. c #D17981",
"5. c #D47D83",
"6. c #CE8180",
"7. c #E58B82",
"8. c #E58B83",
"9. c #EC9182",
"0. c #EC9282",
"q. c #ED9283",
"w. c #FFD7A3",
"e. c #FFEFC9",
"r. c #F5F0E4",
/* pixels */
"U U U U U U U U U J ^ ! ! E 8 , 1 4 F U U U U U U L U ( ~ ! ! E 8 , 1 4 F U U U U U U U U U U J ^ / / E 8 1 1 8 D U U U U U U U ",
"U U U U U U U U U J ^ ! ! E 8 , 1 4 F I U U U U U U U ( ~ ! ! E 8 , 1 6 F U U U U U U U U U U J ^ / / E 8 1 < 8 D U U U U U U U ",
"U U U U U U U U U J ^ / ! E 8 , 1 4 F L U U U U U U U K ^ ! / E 8 , , 4 F U U U U U U U U I L J ^ ! / E 8 1 1 6 D I I L U U U U ",
"U U U U U U U U U J ^ / / W 8 , 1 4 F I U U U U U U U ) ^ ! / E 8 , 1 4 F U U U U U U U U U P J ^ ! / E 8 1 1 6 D I L I U U U U ",
"U U U U U U U U L ( ^ ! / E 8 , , 4 D I U U U U U U U J ^ ! ! E 8 1 , 4 F U U U U U U U U U L ( ~ ! ! E 8 , , 6 F U U U U U U U ",
"L L L L L L L U U ( ~ / / E 8 , , 4 D I L L U L U U U J ^ ! ! E 8 1 , 4 F U U U L L L L L U U J ~ ! ! E 8 , , 6 F U U L I L L L ",
"L L L L L L L L U J ^ / / E 8 , , 4 D U U L L L L L U J ^ / ! W 8 1 , 4 F U U L L L L L L L I J ~ ;.! E 8 , , 6 F U U L L L L L ",
"} } } } } } } } } | [ / / W 8 7 7 j K ....} } } } } ..| ^ / :.W g 2 7 j K X.X.} } } } } } } X.| ^ :.:.W 8 7 7 j K X.X.} } } } } ",
"$.$.$.$.$.$.$.$.&.@.4.<.<.' m g f A O.%.%.%.%.%.%.%.%.#.4.<.<.' m f f A +.&.&.&.&.&.&.&.$.$.$.@.4.<.<.' N f f N  .&.&.%.%.%.%.$.",
"9.9.9.9.9.9.9.9.0.7.5.2.2.,.B h M _ #.9.9.9.9.9.0.0.0.7.5.2.3.<.N h h _ #.&.&.q.q.q.q.&.9.9.0.7.5.2.2.] N h h _ #.0.0.0.0.0.0.0.",
"9.9.9.9.9.9.9.9.0.7.5.2.3.] N h h R #.0.            q.7.5.2.2.! N h h _ #.q.q.q.0.0.0.0.9.9.q.7.5.2.3.' N h n R #.q.q.0.9.0.9.9.",
"o.o.o.o.o.o.o.O.O.6.<.,.,.Z n d d       r.r.r.r.r.  6.6.3.,.>.Z n d d M o.6.6.6.O.O.O.O.O.O.O.6.3.,.,.' n d d M { 6.O.O.o.O.O.O.",
"u i i i a a a i a a *.*.-.C 9 %     r.r.r.e.e.e.e.    c C -.-.            i i i i i i i i i i c C -.-.b = & & : u i i i u a a a ",
"X X X 0 X X X X 0 0 z *.C l &     r.r.e.e.e.e.e.e.    0         r.r.r.r.    + X O O O O X O X q z *.*.l & @ % $ X X X X X X 0 X ",
"+ X X X 0 X X X X 0 *.*.*.      r.r.e.e.e.e.e.w.w.  X     r.r.r.r.r.r.r.r.  X X q O O O q X X q z C *.l & @ @ $ ; + X q X X X X ",
"w w w w w w w w w u v C     e.e.e.e.e.e.e.w.w.w.        r.r.r.e.e.e.e.r.r.  w u t w w w w w w w v -.C x = % % & w u w w w w w w ",
"A A S S S S S S S R W     e.e.e.e.e.w.w.w.w.w.        r.r.r.e.e.e.e.e.r.r.  S S S S S S S S S R W / =.V , > > 7 T S S S S S S S ",
"U U U U U U Y I Y J     e.e.e.w.w.w.w.w.w.w.        e.r.e.e.e.e.e.e.e.e.e.  I I Y Y Y Y U Y U ) ^ / / E 8 , 2 4 D I I Y I I I I ",
"U Y Y U I I I I U J   e.e.w.w.w.w.w.w.w.w.        e.e.e.e.e.e.e.e.e.e.e.e.  U U U Y Y U U U U J ^ / / E 8 2 , 6 D Y I I I I I I ",
"U U U U I I I U U J   e.                        w.w.w.w.w.e.e.e.e.e.e.e.e.  U U U U U U U U U J ^ / / E 8 1 , j D U U U U U U U ",
"U U U U I U U U U J                         e.e.e.w.w.w.w.w.w.w.e.e.e.e.    U U L U U U U U U J ^ / / E 8 1 , 6 D U U U U U U U ",
"U U U U I L U U U         r.r.r.r.r.r.r.r.r.e.e.e.e.          w.w.e.e.e.  U U U L U U U U U U J ^ / / E 8 , , 4 D U U U U U U U ",
"U U U U U U U U     r.r.r.r.e.e.e.e.e.e.e.e.e.e.e.e.e.          w.e.      U U U U U U U U L U ) ^ / / E 8 , , 4 F U U U U U U U ",
"U U U U U U U     r.r.r.e.e.e.e.e.e.e.e.e.e.e.e.e.e.e.e.e.e.    e.    4 D U U U U U U U I U U ) ^ / / E 8 , , 6 J U U U U U U U ",
"U U U U L L U   r.r.            e.e.e.e.e.e.e.e.e.e.e.e.e.e.      , 1 4 D I L I I L I I L L U J ^ ! ! E 8 1 1 4 D U U U U U U U ",
"L L L L L L L   r.r.  r.r.r.r.  e.e.e.e.e.e.e.e.e.e.e.e.e.e.w.  8 , , 4 F I L L L L L L L I U ( ~ ! ! E 8 1 1 4 D U U U L L L L ",
"L L L L L L     r.e.  r.r.r.r.  e.e.            e.e.e.e.e.e.w.                          L L L K ~ ! ! E 8 1 , 4 D U U U L L L L ",
"} } } } } }   r.r.e.  r.r.r.r.  e.e.  r.r.r.r.  e.e.e.e.e.e.w.  e.e.r.r.r.r.r.r.r.r.e.        | [ ! ,.W g < 2 j K ......} } } } ",
"$.$.$.$.$.$.  r.r.    r.r.. .   e.e.  . . r.r.  e.e.e.e.e.e.w.  r.r.r.r.r.r.r.r.r.r.r.r.r.r.    4.1.1.' m f f A  .%.%.%.$.%.%.%.",
"0.0.9.9.9.9.  r.e.  r.r.r.. .   e.e.  . . r.r.  e.e.e.e.e.e.w.  e.e.e.e.e.e.e.r.r.r.r.r.e.r.e.    3.1.,.B h h _ #.0.0.0.&.q.0.0.",
"9.9.9.9.9.    r.e.  r.r.r.. .   e.e.  . . r.r.  e.e.e.e.e.e.w.  e.e.e.e.e.e.e.e.e.e.r.r.r.e.e.e.                    7.q.9.9.0.0.",
"O.O.o.o.    r.e.e.  r.r.r.r.r.  e.e.  r.r.r.r.  e.e.e.e.e.w.w.  e.e.e.e.e.e.e.e.e.e.e.e.e.e.e.w.w.    r.r.r.r.r.r.    O.O.O.O.O.",
"i u i i   r.r.e.e.              e.e.            e.e.e.e.w.w.w.  e.e.e.e.e.e.e.e.e.e.e.e.e.e.e.e.w.w.  r.r.r.r.r.r.r.  i i i i u ",
"+ + X X   e.e.e.e.e.e.e.e.e.e.e.e.e.e.e.e.e.e.e.e.e.e.w.w.w.w.  e.e.e.e.e.e.e.e.e.e.e.e.e.e.e.e.e.w.  e.e.e.e.r.r.r.    X 0 X X ",
"+ + X q   e.e.e.e.e.e.e.e.        e.e.e.e.e.e.e.e.e.w.w.w.w.    e.e.e.e.e.e.e.e.e.e.e.e.e.e.e.e.e.w.    e.e.e.e.e.r.r.  q + X X ",
"w u e r   e.e.e.e.e.e.e.e.        e.e.e.e.e.e.e.w.w.w.w.w.      e.e.e.e.e.e.e.e.e.e.e.e.e.e.e.e.e.w.w.  e.e.e.e.e.e.r.    w w w ",
"A S S S   e.e.e.e.e.e.e.e.e.    e.e.e.e.e.w.w.w.w.w.w.w.      w.e.e.e.e.e.e.e.e.e.e.e.e.e.e.e.e.e.w.w.  w.e.e.e.e.e.r.r.  S S A ",
"J I Y I   e.e.e.e.e.e.e.e.e.e.e.e.e.w.w.w.w.w.w.w.w.w.w.    w.w.e.e.e.e.e.e.e.e.e.e.e.e.e.e.e.e.e.w.w.  w.w.e.e.e.e.e.e.  J I U ",
"Y Y I I     e.e.e.e.e.e.w.w.w.w.w.w.w.w.w.w.w.w.w.w.      w.w.w.e.e.e.e.e.e.e.e.e.e.e.e.e.e.e.e.e.e.w.    w.w.e.e.e.e.    I U U ",
"U U U U U                           w.w.w.              w.w.w.e.e.e.e.e.e.e.e.e.e.e.e.e.e.e.e.e.e.e.w.w.  w.w.w.w.e.e.  I L I U ",
"U U U U U U U I U J ^ / / W 8 ,                       w.w.w.e.e.e.e.e.e.e.e.e.e.e.e.e.e.e.e.e.e.e.e.w.w.      w.e.e.    U U U U ",
"U U U U U U U L I ) ^ / / E 8 ,               w.w.w.w.w.e.e.e.e.e.e.e.e.e.e.e.e.e.e.e.e.e.e.e.e.e.e.w.w.              U U U U U ",
"U U U U U U U U J J ^ ! / E 8 ,   w.w.w.w.    w.w.w.e.e.e.e.e.e.e.e.e.e.e.e.e.e.e.e.e.e.e.e.e.e.e.e.w.w.            U U U U U U ",
"U U U U U U U U L ( ~ ! / E 8 ,   e.w.w.w.    w.w.e.e.e.w.e.  e.e.e.e.e.e.e.e.e.e.e.e.e.e.e.e.e.e.e.w.w.        D I U U U U U U ",
"U U U U U U U U L K ^ / / E 8 1   e.e.w.w.    w.w.e.e.e.w.    e.e.e.e.e.e.e.e.e.e.e.e.  e.e.e.e.e.e.w.w.  1 1 4 D U U L U U U U ",
"L L L L L L L U L ( ^ / / W 8 1   e.e.e.w.    e.e.e.e.w.            e.e.e.e.e.e.e.e.    r.e.e.e.e.e.w.w.  1 1 4 D U L L L L L L ",
"L L L L L L L L I J ^ / / E 8 >   r.e.e.w.w.  e.e.e.e.w.    /                           r.e.e.e.e.w.w.w.  , 1 4 D I I L L L L L ",
"} } } } } } } } X.| [ / / W 8 8   r.e.e.w.w.  r.e.e.e.w.  ' / W g 2 2 j K X.X.X.X.X.}   r.r.e.e.e.w.w.w.  7 2 j K X.} } } } } X.",
"$.%.%.%.&.&.&.$.$.+.4.<.2.' m g   r.e.e.w.w.  r.e.e.w.w.  1.2./ M d h A +.%.%.%.$.$.&.  r.r.e.e.w.w.w.w.  f f B  .%.&.%.%.%.%.%.",
"&.q.9.q.&.q.q.0.0.7.5.2.2.'       e.e.e.w.w.  r.e.e.w.w.  2.2.>.B h h B +.0.0.0.9.9.9.  r.r.e.e.w.w.w.w.  h h _ #.0.0.0.0.0.9.0.",
"9.9.9.9.q.q.q.q.0.+.5.3.2.]   e.e.e.w.w.w.    e.e.w.w.w.  2.4.' B h h T +.%.0.0.9.9.    e.e.e.w.w.w.w.w.  h M R #.0.0.0.0.0.9.9.",
"o.O.O.O.O.O.O.6.O.o.<.,.,.Z   e.w.w.w.w.w.  e.e.w.w.w.w.  >.,.-.n d 3 M O.O.O.O.6.6.  e.e.e.e.w.w.w.w.w.  d d M { O.6.O.o.O.O.O.",
"u i i i a a i i i *.*.*.-.b                 e.w.w.w.w.w.  -.-.C d % & : w i s s s i   w.w.w.w.w.w.w.w.w.  % & - u i i i y i i a ",
"q X X X q X X X + q y *.*.l & # @ $ X X X                 b *.l & $ # $ X X X X q O                       @ @ $ X X X X X X q X ",
"X X X O X X X X + q *.*.*.l & # @ $ 0 O X X X q X X X 0 z *.*.l : # # $ q X O X O O O q X X X 0 z C *.l & @ @ $ ; X X q X X X X ",
"w w w w w w w w w t b =.=.b = % % & w r r r r e w w w y b b V b = % % * e w w w w w w w w w - z b C -.v = % % & w u w w w w w w ",
"S S S S S S S S T E W / Q V 3 > > 7 T S S S S S S S A R W Q Q V 3 > , , k A S S S S S S S S S A V ;.:.m 2 > > 2 A A S S S S S S ",
"P Y P Y U U U Y U K ^ / / E 8 , 1 6 D Y I I I I U Y U ) ^ / / E 8 1 7 6 F U U U Y Y Y U Y U I J ^ ! ;.E 8 2 1 j D U I I I I I I ",
"U P Y Y Y Y U Y U J ^ / / E 8 1 7 6 D I I I I I U U U J ^ / / E 8 1 1 4 D I U I U U U U U U Y J ^ ! ! E 8 , 1 4 D U I I I I I I ",
"P P U U U U U P U J ^ / / W 8 , , 6 D U I I L U U U L ( ^ ! ! E 8 2 , 4 D U U U U U U U L U P J ^ ! ! E 8 , 1 4 D U I I U U L I ",
"U U U U U U U U U K ~ ! / E 8 , , 4 D U U U U U U Y Y J ~ ! ! E 8 1 1 4 D I I I U U U U U U U ( ~ ! ! E 8 1 1 4 D U U U U U U U ",
"U U U U U U U U U K ~ ! / E 8 , , 4 D U U U U U U U U J ~ ! ! W 8 1 1 4 F I U U U U U U U U U U ~ ! ! E 8 1 1 4 D U U U U U U U ",
"U U U U U U U U U J ~ ! ! E 8 , , 4 J U U U U U U U U J ^ ! / B 8 1 , 4 F U U U U U U U U U J J ^ ! / E 8 1 , 4 D U U U U U U U ",
"U U U U U U U U U J ^ / / E 8 1 , 4 D U U U U U U U U J ^ ! ! W 8 < 8 6 F I U U U U U U U U L ( ^ ! / E 8 1 1 4 F U U U U U U U "
};
