/* XPM */
static char *result[] = {
/* columns rows colors chars-per-pixel */
"64 64 137 2 ",
"   c #1F2E52",
".  c #7E6175",
"X  c #7F6175",
"o  c #7E6275",
"O  c #7E6276",
"+  c #7F6276",
"@  c #8E5369",
"#  c #8E5469",
"$  c #8A576C",
"%  c #975568",
"&  c #975A6B",
"*  c #98586A",
"=  c #9E5B6E",
"-  c #995E6E",
";  c #825E73",
":  c #835F73",
">  c #965A70",
",  c #A75667",
"<  c #AE5666",
"1  c #AE5766",
"2  c #AF5766",
"3  c #AF5C69",
"4  c #AE5C6D",
"5  c #BA5C67",
"6  c #BA5D67",
"7  c #BB5D67",
"8  c #B05B68",
"9  c #B55D6C",
"0  c #B65D6C",
"q  c #A05E70",
"w  c #8A6378",
"e  c #8A6478",
"r  c #976473",
"t  c #986170",
"y  c #986473",
"u  c #986573",
"i  c #9F6676",
"p  c #9B6875",
"a  c #9B6D78",
"s  c #9C6D78",
"d  c #9C6D79",
"f  c #9C6E79",
"g  c #AB616D",
"h  c #B3616C",
"j  c #B7606E",
"k  c #B5656E",
"l  c #BC616A",
"z  c #BF656C",
"x  c #A7647B",
"c  c #A3677E",
"v  c #AE657A",
"b  c #A26D7B",
"n  c #AF687C",
"m  c #AE697D",
"M  c #B26673",
"N  c #B96673",
"B  c #B56A72",
"V  c #BB6A75",
"C  c #BC6A75",
"Z  c #BB6679",
"A  c #B06D7F",
"S  c #BF707E",
"D  c #C6696D",
"F  c #C7696D",
"G  c #D16569",
"H  c #D16669",
"J  c #D26669",
"K  c #D36669",
"L  c #D1666A",
"P  c #D66A6E",
"I  c #D46E6E",
"U  c #DB6A6A",
"Y  c #DC6A6A",
"T  c #DD6B6A",
"R  c #DC6B6B",
"E  c #DD6B6B",
"W  c #DE6B6A",
"Q  c #DF6B6A",
"!  c #C06B70",
"~  c #C56972",
"^  c #C26778",
"/  c #C36A7A",
"(  c #C26B7F",
")  c #C26C7F",
"_  c #C76C7E",
"`  c #CC6B79",
"'  c #CD6B79",
"]  c #C86C7E",
"[  c #D66A70",
"{  c #D76B70",
"}  c #D86B70",
"|  c #C37074",
" . c #C47074",
".. c #C5707D",
"X. c #C7737F",
"o. c #CE707C",
"O. c #C87D7B",
"+. c #DF7470",
"@. c #DA7374",
"#. c #DB7E79",
"$. c #E07470",
"%. c #E07570",
"&. c #D1857F",
"*. c #D2857F",
"=. c #D2867F",
"-. c #DF877E",
";. c #E0827E",
":. c #E0877E",
">. c #E7877C",
",. c #E8877C",
"<. c #E8887D",
"1. c #B06A81",
"2. c #B66A80",
"3. c #B66B80",
"4. c #B76D82",
"5. c #C86E80",
"6. c #C96E80",
"7. c #C57383",
"8. c #C57483",
"9. c #CA7482",
"0. c #CB7483",
"q. c #CC7784",
"w. c #C87882",
"e. c #D17981",
"r. c #D47D83",
"t. c #CE8180",
"y. c #E58B82",
"u. c #E58B83",
"i. c #EC9182",
"p. c #ED9182",
"a. c #EC9282",
"s. c #ED9282",
"d. c #ED9283",
"f. c #FCC88D",
"g. c #FFD7A3",
"h. c #FFEFC9",
"j. c #F5F0E4",
/* pixels */
"R R R R R R R Y Y { ` _ ] ^ 9 1 1 6 L E R R R R R Y Y { ` _ ] ^ 9 1 1 6 L E R R R R R R R Y Y { ` _ ] ^ 9 1 1 6 L E R R R R R R ",
"R R R R R R R Y Y { ` _ ] ^ 9 1 1 6 L E R R R R R Y Y { ` _ ] ^ 9 1 1 6 L E R R R R R R R Y Y { ` _ ] ^ 9 1 1 6 L E R R R R R R ",
"R R R R R R R Y Y { ` _ ] ^ 9 1 1 6 L E R R R R R Y Y { ` _ ] ^ 9 1 1 6 L E R R R R R R R Y Y { ` _ ] ^ 9 1 1 6 L E R R R R R R ",
"R R R R R R R Y Y { ` _ ] ^ 9 1 1 6 L E R R R R R Y Y { ` _ ] ^ 9 1 1 6 L E R R R R R R R Y Y { ` _ ] ^ 9 1 1 6 L E R R R R R R ",
"R R R R R R R Y Y { ` _ ] ^ 9 1 1 6 L E R R R R R Y Y { ` _ ] ^ 9 1 1 6 L E R R R R R R R Y Y { ` _ ] ^ 9 1 1 6 L E R R R R R R ",
"U U U U U U U Y Y [ ` _ ] ^ 9 1 1 6 H Y Y U U U U Y Y [ ` _ ] ^ 9 1 1 6 H Y Y U U U U U U Y Y [ ` _ ] ^ 9 1 1 6 H Y Y U U U U U ",
"U U U U U U U U Y P ` _ ] ^ 9 < 1 5 G Y Y U U U U U Y P ` _ ] ^ 9 < 1 5 G Y Y U U U U U U U Y P ` _ ] ^ 9 < 1 5 G Y Y U U U U U ",
"+.+.+.+.+.+.+.+.$.@.o.5.6./ j 8 8 l I %.%.+.+.+.+.+.$.@.o.5.6./ j 8 8 l I %.%.+.+.+.+.+.+.+.$.@.o.5.6./ j 8 8 l I %.%.+.+.+.+.+.",
">.>.>.>.>.>.>.>.,.;.e.9.0...N h h ! #.<.,.>.>.>.>.>.,.;.e.9.0...N h h ! #.<.,.>.>.>.>.>.>.>.,.;.e.9.0...N h h ! #.<.,.>.>.>.>.>.",
"i.i.i.i.i.i.i.i.a.u.r.q.q.X.V k k | -.d.a.i.i.i.i.i.a.u.r.q.q.X.V k k | -.d.a.i.i.i.i.i.i.i.a.u.r.q.q.X.V k k | -.d.a.i.i.i.i.i.",
"i.i.i.i.i.i.i.p.s.y.r.q.q.X.C k k  .:.d.s.i.i.i.i.p.s.y.r.q.q.X.C k k  .:.d.s.i.i.i.i.i.i.p.s.y.r.q.q.X.C k k  .:.d.s.i.i.i.i.i.",
"&.&.&.&.&.&.&.*.*.t.w.7.8.S M g g B O.=.*.&.&.&.&.*.*.t.w.7.8.S M g g B O.=.*.&.&.&.          t.w.7.8.S M g g B O.=.*.&.&.&.&.&.",
"s s s s s s s a a b A 4.4.n q * *                 a a b A 4.4.n q * * - p f d s     j.j.j.j.    A 4.4.n q * * - p f d s s s s s ",
"X X X X X X X . . w c 1.1.x > @ @   j.j.j.j.j.j.    . w c 1.1.x > @ @ $ ; O +     j.j.h.h.j.j.  c 1.1.x > @ @ $ ; O + X X X X X ",
"+ + + + + + + o . e c 1.1.x > # #   j.h.h.h.h.h.h.h.    c 1.1.x > # # $ : +     h.h.h.h.h.j.j.  c 1.1.x > # # $ : + + + + + + + ",
"y y y y y y y y r i m 2.3.v = % %   h.h.h.j.h.h.h.h.h.    2.3.v = % % & t u   h.h.h.h.h.h.h.h.  m 2.3.v = % % & t u u y y y y y ",
"D D D D D D D D D ~ / ( ) Z 4 , ,     h.h.h.h.h.h.h.g.g.    ) Z 4 , , 3 z     g.g.g.h.h.h.h.h.  / ( ) Z 4 , , 3 z F D D D D D D ",
"W W W W W W W W W } ' ] ] ^ 0 2 2 7   h.h.h.h.g.g.g.g.                          g.g.g.g.h.h.  } ' ] ] ^ 0 2 2 7 K Q W W W W W W ",
"T T T T T T T T T } ' ] ] ^ 0 2 2 7   h.h.h.g.g.g.    j.j.j.j.j.j.j.j.j.j.j.j.h.h.    g.g.g.  } ' ] ] ^ 0 2 2 7 J W T T T T T T ",
"R R R R R R R Y Y { ` _ ] ^ 9 1 1 6   h.h.g.g.g.g.h.h.h.h.h.h.h.h.h.h.h.h.h.h.h.h.h.h.  g.  Y { ` _ ] ^ 9 1 1 6 L E R R R R R R ",
"R R R R R R R Y Y { ` _ ] ^ 9 1 1 6     g.g.g.h.h.h.h.h.h.h.h.j.j.h.h.j.h.h.h.h.h.h.h.      Y { ` _ ] ^ 9 1 1 6 L E R R R R R R ",
"R R R R R R R Y Y { ` _ ] ^ 9 1 1 6 L   g.  h.h.h.h.j.h.h.h.h.h.h.h.h.h.h.h.h.h.h.h.h.h.  Y Y { ` _ ] ^ 9 1 1 6 L E R R R R R R ",
"R R R R R R R Y Y { ` _ ] ^ 9 1 1 6 L     h.h.h.h.h.h.h.h.h.h.h.h.h.h.h.h.h.h.h.h.h.h.h.  Y Y { ` _ ] ^ 9 1 1 6 L E R R R R R R ",
"R R R R R R R Y Y { ` _ ] ^ 9 1 1 6 L   h.h.h.h.h.h.h.h.g.g.g.g.g.g.g.g.g.g.g.h.h.h.h.h.  Y Y { ` _ ] ^ 9 1 1 6 L E R R R R R R ",
"R R R R R R R Y Y { ` _ ] ^ 9 1 1 6 L   h.h.h.h.g.g.g.g.g.g.g.g.g.g.g.g.g.g.g.g.h.h.h.h.  Y Y { ` _ ] ^ 9 1 1 6 L E R R R R R R ",
"U U U U U U U Y Y [ ` _ ] ^ 9 1 1 6 H   h.h.g.g.g.g.                            g.g.h.h.    Y [ ` _ ] ^ 9 1 1 6 H Y Y U U U U U ",
"U U U U U U U U Y P ` _ ] ^ 9 < 1 5 G   g.g.      j.j.j.j.j.j.j.j.j.j.j.j.j.j.j.  g.g.g.h.  Y P ` _ ] ^ 9 < 1 5 G Y Y U U U U U ",
"+.+.+.+.+.+.+.+.$.@.o.5.6./ j 8 8 l I   g.    j.j.j.j.j.j.j.j.j.j.j.j.j.j.j.j.j.j.  g.g.h.  $.@.o.5.6./ j 8 8 l I %.%.+.+.+.+.+.",
">.>.>.>.>.>.>.>.,.;.e.9.0...N h h ! #.  g.g.h.h.h.j.j.j.j.h.h.h.h.h.h.h.h.h.h.h.h.h.  g.g.  ,.;.e.9.0...N h h ! #.<.,.>.>.>.>.>.",
"i.i.i.i.i.i.i.i.a.u.r.q.q.X.V k k | -.  h.h.h.h.h.j.h.j.j.h.h.j.j.j.j.h.j.j.j.j.j.h.h.h.h.    u.r.q.q.X.V k k | -.d.a.i.i.i.i.i.",
"i.i.i.i.i.i.i.p.s.y.r.q.q.X.C k k  .  h.h.h.h.j.j.j.h.h.h.h.j.h.h.h.h.j.j.j.j.j.j.j.j.h.h.h.  y.r.q.q.X.C k k  .:.d.s.i.i.i.i.i.",
"&.&.&.&.&.&.&.*.*.t.w.7.8.S M g g B   h.j.j.j.j.h.h.h.h.j.j.h.h.h.h.h.j.h.h.h.h.j.h.j.j.h.h.    w.7.8.S M g g B O.=.*.&.&.&.&.&.",
"s s s s s s s a a b A 4.4.n q * *   h.h.j.h.j.h.j.j.h.h.h.h.h.h.j.h.h.h.h.h.h.h.h.h.h.j.h.h.h.  A 4.4.n q * * - p f d s s s s s ",
"X X X X X X X . . w c 1.1.x > @ @   h.h.j.h.h.h.h.h.h.h.h.h.h.h.h.h.h.h.h.h.h.h.h.h.h.h.h.h.h.    1.1.x > @ @ $ ; O + X X X X X ",
"+ + + + + + + o . e c 1.1.x > # #   h.h.j.h.h.h.h.h.h.h.h.h.h.h.h.h.h.h.h.h.h.h.h.h.h.h.h.h.h.h.  1.1.x > # # $ : + + + + + + + ",
"y y y y y y y y r i m 2.3.v = % %   h.h.j.h.h.h.h.h.h.h.h.h.h.h.h.h.h.h.h.h.h.h.h.h.h.h.h.h.h.h.  2.3.v = % % & t u u y y y y y ",
"D D D D D D D D D ~ / ( ) Z 4 , ,   h.h.h.h.h.h.h.h.h.h.h.h.h.h.h.h.h.h.h.h.h.h.h.h.h.h.h.h.h.h.  ( ) Z 4 , , 3 z F D D D D D D ",
"W W W W W W W W W } ' ] ] ^ 0 2 2   g.h.h.h.h.h.h.h.h.h.h.h.                h.h.h.h.h.h.h.h.h.h.  ] ] ^ 0 2 2 7 K Q W W W W W W ",
"T T T T T T T T T } ' ] ] ^ 0 2 2   g.h.h.h.h.h.h.h.h.h.      j.j.j.j.j.h.    h.h.h.h.h.h.h.h.g.  ] ] ^ 0 2 2 7 J W T T T T T T ",
"R R R R R R R Y Y { ` _ ] ^ 9 1 1   g.g.g.h.h.h.h.h.h.    j.h.h.h.h.h.j.j.h.    h.h.h.h.h.h.h.g.  _ ] ^ 9 1 1 6 L E R R R R R R ",
"R R R R R R R Y Y { ` _ ] ^ 9 1 1 6   g.g.g.h.h.h.h.g.  h.h.h.h.h.j.j.j.j.j.h.  g.g.h.h.h.g.g.g.  _ ] ^ 9 1 1 6 L E R R R R R R ",
"R R R R R R R Y Y { ` _ ] ^ 9 1 1 6   g.g.g.g.g.g.g.g.  h.j.j.h.h.h.h.h.h.h.h.  g.f.f.f.g.g.g.    _ ] ^ 9 1 1 6 L E R R R R R R ",
"R R R R R R R Y Y { ` _ ] ^ 9 1 1 6 L     g.g.g.g.g.f.  j.h.h.h.h.h.h.h.h.h.h.    f.f.f.f.g.    ` _ ] ^ 9 1 1 6 L E R R R R R R ",
"R R R R R R R Y Y { ` _ ] ^ 9 1 1 6 L E       f.f.f.f.  h.h.h.h.h.h.h.h.h.h.h.h.  f.f.f.      { ` _ ] ^ 9 1 1 6 L E R R R R R R ",
"R R R R R R R Y Y { ` _ ] ^ 9 1 1 6 L E   g.            g.g.h.h.h.h.h.h.h.h.g.            g.  { ` _ ] ^ 9 1 1 6 L E R R R R R R ",
"U U U U U U U Y Y [ ` _ ] ^ 9 1 1 6 H Y   g.g.g.g.  Y     g.g.g.h.h.h.g.g.g.    U   g.g.g.g.  [ ` _ ] ^ 9 1 1 6 H Y Y U U U U U ",
"U U U U U U U U Y P ` _ ] ^ 9 < 1 5 G Y   f.f.g.g.  Y P       g.g.g.g.g.      U U   g.f.f.f.  P ` _ ] ^ 9 < 1 5 G Y Y U U U U U ",
"+.+.+.+.+.+.+.+.$.@.o.5.6./ j 8 8 l I %.  f.f.f.f.  $.@.o.5.              %.%.+.+.  f.f.f.f.  @.o.5.6./ j 8 8 l I %.%.+.+.+.+.+.",
">.>.>.>.>.>.>.>.,.;.e.9.0...N h h ! #.<.  f.f.f.  >.,.;.e.9.0...N h h ! #.<.,.>.>.>.  f.f.f.  ;.e.9.0...N h h ! #.<.,.>.>.>.>.>.",
"i.i.i.i.i.i.i.i.a.u.r.q.q.X.V k k | -.d.a.      i.i.a.u.r.q.q.X.V k k | -.d.a.i.i.i.i.      a.u.r.q.q.X.V k k | -.d.a.i.i.i.i.i.",
"i.i.i.i.i.i.i.p.s.y.r.q.q.X.C k k  .:.d.s.i.i.i.i.p.s.y.r.q.q.X.C k k  .:.d.s.i.i.i.i.i.i.p.s.y.r.q.q.X.C k k  .:.d.s.i.i.i.i.i.",
"&.&.&.&.&.&.&.*.*.t.w.7.8.S M g g B O.=.*.&.&.&.&.*.*.t.w.7.8.S M g g B O.=.*.&.&.&.&.&.&.*.*.t.w.7.8.S M g g B O.=.*.&.&.&.&.&.",
"s s s s s s s a a b A 4.4.n q * * - p f d s s s s a a b A 4.4.n q * * - p f d s s s s s s a a b A 4.4.n q * * - p f d s s s s s ",
"X X X X X X X . . w c 1.1.x > @ @ $ ; O + X X X X . . w c 1.1.x > @ @ $ ; O + X X X X X X . . w c 1.1.x > @ @ $ ; O + X X X X X ",
"+ + + + + + + o . e c 1.1.x > # # $ : + + + + + + o . e c 1.1.x > # # $ : + + + + + + + + o . e c 1.1.x > # # $ : + + + + + + + ",
"y y y y y y y y r i m 2.3.v = % % & t u u y y y y y r i m 2.3.v = % % & t u u y y y y y y y r i m 2.3.v = % % & t u u y y y y y ",
"D D D D D D D D D ~ / ( ) Z 4 , , 3 z F D D D D D D D ~ / ( ) Z 4 , , 3 z F D D D D D D D D D ~ / ( ) Z 4 , , 3 z F D D D D D D ",
"W W W W W W W W W } ' ] ] ^ 0 2 2 7 K Q W W W W W W W } ' ] ] ^ 0 2 2 7 K Q W W W W W W W W W } ' ] ] ^ 0 2 2 7 K Q W W W W W W ",
"T T T T T T T T T } ' ] ] ^ 0 2 2 7 J W T T T T T T T } ' ] ] ^ 0 2 2 7 J W T T T T T T T T T } ' ] ] ^ 0 2 2 7 J W T T T T T T ",
"R R R R R R R Y Y { ` _ ] ^ 9 1 1 6 L E R R R R R Y Y { ` _ ] ^ 9 1 1 6 L E R R R R R R R Y Y { ` _ ] ^ 9 1 1 6 L E R R R R R R ",
"R R R R R R R Y Y { ` _ ] ^ 9 1 1 6 L E R R R R R Y Y { ` _ ] ^ 9 1 1 6 L E R R R R R R R Y Y { ` _ ] ^ 9 1 1 6 L E R R R R R R ",
"R R R R R R R Y Y { ` _ ] ^ 9 1 1 6 L E R R R R R Y Y { ` _ ] ^ 9 1 1 6 L E R R R R R R R Y Y { ` _ ] ^ 9 1 1 6 L E R R R R R R ",
"R R R R R R R Y Y { ` _ ] ^ 9 1 1 6 L E R R R R R Y Y { ` _ ] ^ 9 1 1 6 L E R R R R R R R Y Y { ` _ ] ^ 9 1 1 6 L E R R R R R R ",
"R R R R R R R Y Y { ` _ ] ^ 9 1 1 6 L E R R R R R Y Y { ` _ ] ^ 9 1 1 6 L E R R R R R R R Y Y { ` _ ] ^ 9 1 1 6 L E R R R R R R "
};
