/* XPM */
static char *f252ef6d0fc548249835d54e9fa62dc0wDUPgVae6aZeetM0[] = {
/* columns rows colors chars-per-pixel */
"64 64 127 2 ",
"   c #1F2E52",
".  c #2E5C6B",
"X  c #7E6175",
"o  c #7F6175",
"O  c #7E6275",
"+  c #7E6276",
"@  c #7F6276",
"#  c #8E5369",
"$  c #8E5469",
"%  c #8A576C",
"&  c #975568",
"*  c #975A6B",
"=  c #98586A",
"-  c #9E5B6E",
";  c #995E6E",
":  c #825E73",
">  c #965A70",
",  c #A75667",
"<  c #AE5666",
"1  c #AE5766",
"2  c #AF5766",
"3  c #AF5C69",
"4  c #AE5C6D",
"5  c #BA5C67",
"6  c #BA5D67",
"7  c #BB5D67",
"8  c #B05B68",
"9  c #B55D6C",
"0  c #A05E70",
"q  c #8A6378",
"w  c #8A6478",
"e  c #976473",
"r  c #986170",
"t  c #986473",
"y  c #986573",
"u  c #9F6676",
"i  c #9B6875",
"p  c #9B6D78",
"a  c #9C6D78",
"s  c #9C6E79",
"d  c #AB616D",
"f  c #B3616C",
"g  c #B7606E",
"h  c #B5656E",
"j  c #BC616A",
"k  c #BF656C",
"l  c #A7647B",
"z  c #A3677E",
"x  c #AE657A",
"c  c #A26D7B",
"v  c #AF687C",
"b  c #AE697D",
"n  c #B26673",
"m  c #B96673",
"M  c #B56A72",
"N  c #BB6A75",
"B  c #BC6A75",
"V  c #BB6679",
"C  c #B06D7F",
"Z  c #BF707E",
"A  c #C6696D",
"S  c #C7696D",
"D  c #D16569",
"F  c #D16669",
"G  c #D36669",
"H  c #D1666A",
"J  c #D66A6E",
"K  c #D46E6E",
"L  c #DB6A6A",
"P  c #DC6A6A",
"I  c #DD6B6A",
"U  c #DC6B6B",
"Y  c #DD6B6B",
"T  c #DF6B6A",
"R  c #C06B70",
"E  c #C56972",
"W  c #C26778",
"Q  c #C36A7A",
"!  c #C26B7F",
"~  c #C26C7F",
"^  c #C76C7E",
"/  c #CC6B79",
"(  c #CD6B79",
")  c #C86C7E",
"_  c #D76B70",
"`  c #D86B70",
"'  c #C37074",
"]  c #C47074",
"[  c #C5707D",
"{  c #C7737F",
"}  c #CE707C",
"|  c #C87D7B",
" . c #DF7470",
".. c #DA7374",
"X. c #DB7E79",
"o. c #E07470",
"O. c #E07570",
"+. c #D1857F",
"@. c #D2857F",
"#. c #D2867F",
"$. c #DF877E",
"%. c #E0827E",
"&. c #E0877E",
"*. c #E7877C",
"=. c #E8877C",
"-. c #E8887D",
";. c #B06A81",
":. c #B66A80",
">. c #B76D82",
",. c #C86E80",
"<. c #C96E80",
"1. c #C57383",
"2. c #C57483",
"3. c #CA7482",
"4. c #CB7483",
"5. c #CC7784",
"6. c #C87882",
"7. c #D17981",
"8. c #D47D83",
"9. c #CE8180",
"0. c #E58B82",
"q. c #E58B83",
"w. c #EC9182",
"e. c #ED9282",
"r. c #FFD7A3",
"t. c #FFEFC9",
"y. c #F5F0E4",
/* pixels */
"U U U U U U U U U J ( ^ ^ W 9 < 1 7 F Y L Y U U U L L _ / ^ ^ W 9 < 1 7 H L Y L U U U U U U U J ( ) ) W 9 < < 7 G U U U U U U U ",
"U U U U U U U U U J ( ^ ^ W 9 < 1 7 F L Y L U U U U U _ / ^ ^ W 9 < 1 7 H Y U U U U U U U U U J ( ) ) W 9 < < 9 G U U U U U U U ",
"U U U U U U U U U J ( ) ^ W 9 < 1 7 H Y L U U U U U U K ( ^ ) W 9 < 1 7 H U U U U U U U U P P J ( ^ ) W 9 8 1 7 H U U U U U U U ",
"U U U U U U U U U J ( ) ) Q 9 < < 7 H L U U U U U U U ` ( ^ ) W 9 < 1 7 H U U U U U U U U P P J ( ^ ) W 8 1 1 7 H U U U U U U U ",
"U U U U U U U U L _ ( ^ ) W 9 < 1 7 H Y U U L L U U U J ( ) ^ W 8 1 1 7 H Y Y L U U U U U U U _ / ^ ^ W 9 < < 7 D U U U U U U U ",
"L L L L L L L U U _ / ) ) W 9 < < 7 H L U L L L U U U J ( ) ^ W 9 1 1 7 H Y L L L L L L L U U J / ^ ^ W 9 < < 7 D U L L U U U U ",
"L L L L L L L L U J ( ) ) W 9 < < 7 H U U L L L L L U G ( <.^ Q 9 1 1 7 H Y Y L L L L L L L L J / ,.^ W 9 < < 7 D U U L L L U U ",
" . . . . . . . . ...} ) ) Q 9 8 3 j J O. . . . . . .o...( <.<.Q g 8 3 j J O. . . . . . . . . ...( <.<.Q 9 8 8 j K o. . . . . . .",
"*.*.*.*.*.*.*.*.-.%.7.3.3.^ M 9 f k $.*.*.*.*.*.=.=.=.0.} 3.3.[ N f f N $.*.*.*.*.*.*.*.*.*.*.$.7.3.3.[ m f f B &.*.*.*.*.*.*.*.",
"w.w.w.w.w.w.w.w.w.0.8.5.5.3.B h h ' $.w.w.w.w.w.w.w.w.q.9.5.5.{ N h h ] &.w.            w.w.w.0.8.5.5.{ B h h ' &.-.w.w.w.w.w.w.",
"w.w.w.w.w.w.w.w.w.0.8.5.6.{ B h h ' $.w.w.w.w.w.w.w.e.q.9.8.{ ^ B h h ] &.w.  y.y.y.y.y.      -.8.5.6.{ B h h ' &.w.w.w.w.w.w.w.",
"+.+.+.+.+.#.+.#.#.9.6.2.2.Z n d d M | +.#.#.#.#.9.9.9.            d d M |     t.t.t.t.y.y.y.    6.2.2.[ n d d M +.+.+.+.+.#.#.#.",
"i s s p s s s s s s ;.;.>.C 0 & * * i p p p p i c p     y.y.y.y.        i     t.t.t.t.t.t.y.y.    >.>.b - * * > i s p s t s s a ",
"X X q X X X X X X w z ;.;.l * $ $ % X O X X X X q O   y.y.y.y.y.y.y.y.    X   r.r.t.t.t.t.t.y.y.      l > $ & % X X X X X X w X ",
"X X X X q X X X X w ;.;.;.l > $ $ % w O O w w X X X   y.y.t.t.t.t.y.y.y.        r.r.r.t.t.t.t.t.t.t.    * $ $ % : X X w X X X X ",
"e e e e t t t t e u b :.:.x - & & * r e e e e e e e   y.y.t.t.t.t.t.y.y.y.        r.r.r.r.r.t.t.t.t.t.    & & * r e e e e e e e ",
"A A S S S A A A A E Q ,.Z V 8 , , 8 R S S S S S S S   t.t.t.t.t.t.t.t.t.y.t.        r.r.r.r.r.r.r.t.t.t.    , 3 k A S A A A A A ",
"U U T U T T T T U ` ( ) ^ W 9 < < 5 G T U U T U T T   t.t.t.t.t.t.t.t.t.t.t.t.        r.r.r.r.r.r.r.r.t.t.  1 7 G Y T T T T T T ",
"U Y Y U I Y L I U ` ( ) ^ W 9 < < 7 G U T U T T U U   t.t.t.t.t.t.t.t.r.r.r.r.r.                        t.  < 7 H U U U I I L I ",
"U U U U L L I L L _ ( ^ ^ W 9 < < 7 G U U U U U U U     t.t.t.t.r.r.r.r.r.r.r.t.t.t.                        < 7 H U T U L Y Y Y ",
"U U U U Y L Y L L K ( ) ) W 9 1 < 7 D U U U U U U U U   t.t.t.r.r.          t.t.t.t.y.y.y.y.y.y.y.y.y.        7 H U U U Y L Y L ",
"U U U U L Y Y L Y _ ( ) ) W 9 < < 5 D U U U U U U U U       t.r.          t.t.t.t.t.t.t.t.t.t.t.t.t.y.y.y.y.    H U U U L Y L Y ",
"U U U U U U L Y Y J ( ^ ) W 9 < < 7 D U U U U U U U L _ (     t.    t.t.t.t.t.t.t.t.t.t.t.t.t.t.t.t.t.t.y.y.y.    U U U U U Y L ",
"U U U U U U U L L J / ^ ) W 9 < 1 7 D U U U U U U U U J ( ^ ^       t.t.t.t.t.t.t.t.t.t.t.t.t.t.            y.y.  U U U U U U U ",
"U U U U L L L L U _ ( ^ ) W 9 < 1 7 H U U U U U U U U J ( ^ ^ Q   r.t.t.t.t.t.t.t.t.t.t.t.t.t.t.  y.y.y.y.  y.y.  U Y L Y L Y L ",
"L L L L L L L L U K ( ^ ^ Q 9 < 1 7 H U                           r.t.t.t.t.t.t.            t.t.  y.y.y.y.  t.y.    Y Y L L L L ",
"L L L L L L L L U _ / ^ ) Q 9 < <         t.y.y.y.y.y.y.y.y.t.t.  r.t.t.t.t.t.t.  y.y.y.y.  t.t.  y.y.y.y.  t.y.y.  U U L L L L ",
" . . . . . . . . ...( ,.) Q g 3     y.y.y.y.y.y.y.y.y.y.y.y.y.y.  r.t.t.t.t.t.t.  y.y.. .   t.t.  . . y.y.    y.y.  O.O. . . . .",
"-.-.*.*.*.*.*.*.-.$.7.3.3.^ m     t.y.t.y.y.y.y.y.t.t.t.t.t.t.t.  r.t.t.t.t.t.t.  y.y.. .   t.t.  . . y.y.y.  t.y.  *.*.-.-.*.*.",
"e.-.w.w.w.w.                    t.t.t.y.y.y.t.t.t.t.t.t.t.t.t.t.  r.t.t.t.t.t.t.  y.y.. .   t.t.  . . y.y.y.  t.y.    w.e.w.w.w.",
"e.e.e.w.w.    y.y.y.y.y.y.    r.r.t.t.t.t.t.t.t.t.t.t.t.t.t.t.t.  r.r.t.t.t.t.t.  y.y.y.y.  t.t.  y.y.y.y.y.  t.t.y.    w.w.w.w.",
"#.#.#.#.#.  y.y.y.y.y.y.y.  r.r.t.t.t.t.t.t.t.t.t.t.t.t.t.t.t.t.  r.r.r.t.t.t.t.            t.t.              t.t.y.y.  +.+.#.#.",
"i i s s     y.y.y.t.t.t.t.  r.t.t.t.t.t.t.t.t.t.t.t.t.t.t.t.t.t.  r.r.r.r.t.t.t.t.t.t.t.t.t.t.t.t.t.t.t.t.t.t.t.t.t.t.  p p p p ",
"X X q X   y.y.t.t.t.t.t.    r.t.t.t.t.t.t.t.t.t.t.t.t.t.t.t.t.t.    r.r.r.r.t.t.t.t.t.t.t.t.t.        t.t.t.t.t.t.t.t.  X q X X ",
"X X X     y.t.t.t.t.t.t.  r.r.t.t.t.t.t.t.t.t.t.t.t.t.t.t.t.t.t.      r.r.r.r.r.t.t.t.t.t.t.t.        t.t.t.t.t.t.t.t.  w X X X ",
"e e i   y.y.t.t.t.t.t.r.  r.r.t.t.t.t.t.t.t.t.t.t.t.t.t.t.t.t.t.r.      r.r.r.r.r.r.r.t.t.t.t.t.    t.t.t.t.t.t.t.t.t.  e e e e ",
"A A A   t.t.t.t.t.t.r.r.  r.r.t.t.t.t.t.t.t.t.t.t.t.t.t.t.t.t.t.r.r.    r.r.r.r.r.r.r.r.r.r.t.t.t.t.t.t.t.t.t.t.t.t.t.  A A S A ",
"U Y Y     t.t.t.t.r.r.    r.t.t.t.t.t.t.t.t.t.t.t.t.t.t.t.t.t.t.r.r.r.      r.r.r.r.r.r.r.r.r.r.r.r.r.r.t.t.t.t.t.t.    L L U U ",
"Y Y Y Y   t.t.r.r.r.r.  r.r.t.t.t.t.t.t.t.t.t.t.t.t.t.t.t.t.t.t.t.r.r.r.              r.r.r.                          Y T T U T ",
"L Y Y Y     t.t.r.      r.r.t.t.t.t.t.t.t.t.t.t.t.t.t.t.t.t.t.t.t.t.r.r.r.                      ( ^ ^ W 9 < < 7 F Y L L L U U U ",
"L Y U U U               r.r.t.t.t.t.t.t.t.t.t.t.t.t.t.t.t.t.t.t.t.t.t.t.r.r.r.r.r.              ( ^ ^ W 8 1 1 7 F Y L Y L U U U ",
"Y L U U U U             r.r.t.t.t.t.t.t.t.t.t.t.t.t.t.t.t.t.t.t.t.t.t.t.t.t.r.r.r.    r.r.r.r.  ( ^ ) W 9 1 1 7 F I Y L U U U U ",
"L U U U U L U U         r.r.t.t.t.t.t.t.t.t.t.t.t.t.t.t.t.t.t.t.t.  t.r.t.t.t.r.r.    r.r.r.t.  / ^ ^ W 9 1 1 7 H Y L Y U U U U ",
"Y L U U U Y Y L L _ /   r.r.t.t.t.t.t.t.  t.t.t.t.t.t.t.t.t.t.t.t.    r.t.t.t.r.r.    r.r.t.t.  / ^ ^ Q 9 1 1 7 H Y Y L U U U U ",
" .L Y Y U U U L L _ (   r.r.t.t.t.t.t.y.    t.t.t.t.t.t.t.t.            r.t.t.t.t.    r.t.t.t.  / ^ ^ W 9 1 1 7 H Y U U U U U U ",
"L L L L L L L U L ` /   r.r.r.t.t.t.t.y.                          1     r.t.t.t.t.  r.r.t.t.y.  / ^ ^ W 9 1 1 7 H U L L U L L L ",
"L L L L L L L L U J (   r.r.r.t.t.t.y.y.  L L L L L U K ( ^ ) W 8 < <   r.t.t.t.y.  r.r.t.t.y.  ( ) ) W 9 1 1 7 H Y U L L L L L ",
" . . . . . . . .O...(   r.r.r.r.t.t.y.y.   . . .o.o.O...} ) ) Q m 3 3   r.r.t.t.y.  r.r.t.t.y.  } ) { Q g 8 8 j K  . . . . . . .",
"*.*.*.*.-.*.*.*.*.$.5.  r.r.r.r.t.t.y.y.  -.-.-.*.*.*.$.7.3.3.[ m d d   r.r.t.t.y.  r.r.t.t.t.      3.[ m f f R $.*.-.-.-.-.-.*.",
"w.w.w.w.w.w.w.w.w.0.8.  r.r.r.r.r.t.t.t.    e.e.e.w.w.0.8.5.5.2.N h h   r.r.r.t.t.    r.r.r.t.t.t.  5.1.B h h R %.w.e.e.e.e.w.w.",
"w.w.w.w.w.w.w.e.w.0.8.  r.r.r.r.r.t.t.t.t.  -.e.w.w.w.0.8.5.6.2.N h h   r.r.r.r.t.t.  r.r.r.r.r.t.  5.[ N h M E %.w.w.e.w.w.w.w.",
"#.+.+.+.#.#.#.9.+.| 3.  r.r.r.r.r.r.r.r.r.  9.9.+.+.+.+.6.2.2.[ n d 3   r.r.r.r.r.t.                2.[ n d d M +.| 9.9.#.#.#.#.",
"p p s s s s s s s c ;.                      p s s s i s ;.>.>.x 0 * &                 i p p p p b >.>.C d & * ; i s p p p a a a ",
"X X X X X X O O X q z ;.C l * # # % X X O O O X X q X w z ;.;.l * # $ $ O O O O X X w X q O O q z ;.;.l > & # % X O O O X X w X ",
"q X O X q O + O X q l v ;.z > $ $ % w X O X q X X X X w z >.;.l * $ $ % q q O X X X X O O O O q z ;.;.l > % % % : X X w X X X O ",
"r e e e r e e e e l C ;.>.x - & & * r e e r e r e e e u b b >.x - & & * t e e e e e e e e e r l b >.;.x * & & & r t e e e e e e ",
"S S S S S S S S A A Q 1.~ V 3 , , 8 A S S S S S A A A E V ,.Q V 4 , , 8 k S A A S S S S S S S W Q ~ ~ V 4 , , 1 k A S A A A A A ",
"L T T T U T T U L _ ( ) ^ W 9 < < 7 D U U U L T U T U ` ( ^ ,.W 9 1 < 7 H U T U U U T T T U U U ( ) ) W 9 1 1 7 G Y I I I T T I ",
"T L U U T U U U L ` ( ) ^ W 9 1 8 7 G T T T L T U U U J ( ) ) W 9 < < 7 H T U U U U T T P U T J ( ) ) W 9 8 2 7 H Y I I I I I I ",
"U U U U L U U U L _ / ^ ^ Q 9 < < 7 G U T U U U U U L _ ( ) ) W 9 3 < 7 H U U T L U U U P U P J ( ) ) W 9 1 2 7 F Y I Y Y Y Y Y ",
"U U U U U U U U L _ ( ^ ) W 9 < < 7 H U U U U U U U U J / ^ ^ W 8 < < 7 H U T U U U U U U U U K ( ^ ^ W 9 2 2 7 H U U U Y Y L Y ",
"U U U U U U U U U J / ^ ) W 9 < < 7 H J U U U U U U U J ( ^ ^ W g < < 7 H U U U U U U U U U U J ( ^ ^ W 9 8 2 9 H U U U Y L Y L ",
"U U U U U U U U U J ( ^ ) W 9 < < 7 G U U U U U U U U J ( ^ ) W 9 8 8 7 H U U U U U U U U U Y J ( ^ ) W g 1 1 7 H Y U U U U L Y ",
"U U U U U U U U U ` ( ) ) W 9 < < 7 G T U U U U U U T J ( ) ) Q 8 2 < 7 H T U U U U U U U U L J ( ^ ) W 8 1 1 j H Y U U U L Y L "
};
